<?xml version="1.0" encoding="utf-8"?>
<!-- Generator: Adobe Illustrator 18.1.1, SVG Export Plug-In . SVG Version: 6.00 Build 0)  -->
<svg version="1.1" id="Layer_1" xmlns="http://www.w3.org/2000/svg" xmlns:xlink="http://www.w3.org/1999/xlink" x="0px" y="0px"
	 viewBox="0 0 864 864" enable-background="new 0 0 864 864" xml:space="preserve">
<g>
	<path fill="#FFFFFF" d="M609.2,280.1c0,0.3,0.2,0.5,0.2,0.8v79.5c0,11.1-2.5,23.2-8.8,29.5L388,602.1c-9.8,9.8-25.5,9.7-35.3,0
		l25.3,25.3c9.8,9.8,25.6,9.8,35.3,0.1L626,415.3c6.3-6.3,8.8-18.3,8.8-29.5v-79.5C634.8,292.6,622.9,280.6,609.2,280.1z"/>
	<path fill="#FFFFFF" d="M575.3,364.6c6.3-6.3,8.8-18.3,8.8-29.5v-79.5c0-14-12.3-26.4-26.3-26.4H475c-9.2,0-20,2.5-26.3,8.8
		L236.6,450.4c-9.8,9.8-9.8,25.7,0,35.5l90.7,90.8c9.8,9.8,25.6,9.8,35.3,0.1L575.3,364.6z M508,279.9c14,0,25.3,11.3,25.3,25.3
		c0,14-11.3,25.3-25.3,25.3c-14,0-25.3-11.3-25.3-25.3C482.7,291.3,494,279.9,508,279.9z"/>
</g>
</svg>
