<?xml version="1.0" encoding="utf-8"?>
<!-- Generator: Adobe Illustrator 18.1.1, SVG Export Plug-In . SVG Version: 6.00 Build 0)  -->
<svg version="1.1" id="Layer_1" xmlns="http://www.w3.org/2000/svg" xmlns:xlink="http://www.w3.org/1999/xlink" x="0px" y="0px"
	 viewBox="558.8 30.8 780 780" enable-background="new 558.8 30.8 780 780" xml:space="preserve">
<path fill="#FFFFFF" d="M1099.7,391.8l-98.5-68.2l-85-58.9c-23.4-16.2-55.4,0.5-55.4,29v127.1v127.1c0,28.5,32,45.2,55.4,29l85-58.9
	l98.5-68.2C1120,435.8,1120,405.8,1099.7,391.8z"/>
<g display="none">
	<path display="inline" d="M960,43.2c-214.7,0-388.8,174.1-388.8,388.8c0,214.7,174.1,388.8,388.8,388.8
		c214.7,0,388.8-174.1,388.8-388.8C1348.8,217.3,1174.7,43.2,960,43.2z M1050.7,626.4H869.3c-57,0-103.7-46.7-103.7-103.7V341.3
		c0-57,46.7-103.7,103.7-103.7h181.4c57,0,103.7,46.7,103.7,103.7v181.4C1154.4,579.7,1107.7,626.4,1050.7,626.4z"/>
</g>
</svg>
